<?xml version="1.0" encoding="utf-8"?>
<!-- Generator: Adobe Illustrator 23.0.5, SVG Export Plug-In . SVG Version: 6.00 Build 0)  -->
<svg version="1.1" id="Layer_1" xmlns="http://www.w3.org/2000/svg" xmlns:xlink="http://www.w3.org/1999/xlink" x="0px" y="0px"
	 viewBox="0 0 130 50" style="enable-background:new 0 0 130 50;" xml:space="preserve">
<style type="text/css">
	.st0{fill:#6006ED;}
</style>
<g>
	<path class="st0" d="M76.63,37.88c-2.56-0.02-4.4-1.81-4.76-4.63c-0.23-1.82,0.06-3.5,1.08-4.98c0.63-0.92,1.52-1.42,2.53-1.65
		c1.27-0.3,2.49-0.14,3.61,0.59c1.33,0.86,2.01,2.21,2.25,3.85c0.16,1.09,0.09,2.17-0.21,3.22C80.48,36.6,78.84,37.9,76.63,37.88z
		 M79.57,32.2c0.03-0.73-0.09-1.49-0.42-2.19c-0.54-1.15-1.37-1.83-2.59-1.81c-1.2,0.02-2.06,0.67-2.51,1.86
		c-0.59,1.53-0.57,3.09,0.16,4.57c0.96,1.96,3.48,2.13,4.68,0.34C79.42,34.15,79.59,33.23,79.57,32.2z"/>
	<path class="st0" d="M72.06,24.3c0-3.8,0-7.5,0-11.31c0.49,0,0.99-0.02,1.48,0.02c0.09,0.01,0.23,0.27,0.23,0.41
		c0.02,1.37,0.01,2.75,0.01,4.12c0,0.15,0,0.29,0,0.58c0.42-0.58,0.77-1.05,1.11-1.54c0.76-1.06,1.52-2.11,2.26-3.17
		c0.21-0.3,0.45-0.45,0.79-0.45c0.34,0,0.68-0.01,1.02,0.01c0.12,0.01,0.25,0.09,0.37,0.13c-0.04,0.13-0.06,0.29-0.13,0.4
		c-0.89,1.23-1.78,2.45-2.67,3.67c-0.28,0.38-0.56,0.77-0.86,1.18c1.02,1.43,2.04,2.85,3.06,4.28c0.28,0.39,0.55,0.78,0.83,1.16
		c0.22,0.3,0.14,0.46-0.2,0.48c-0.43,0.02-0.87,0.04-1.3,0.05c-0.38,0.01-0.56-0.32-0.76-0.6c-1.14-1.59-2.28-3.19-3.47-4.85
		c-0.01,0.17-0.03,0.27-0.03,0.37c0,1.52-0.01,3.05,0.01,4.57c0,0.32-0.09,0.48-0.38,0.48C72.97,24.3,72.54,24.3,72.06,24.3z"/>
	<path class="st0" d="M94.35,17.04c0.38-0.51,0.88-0.76,1.41-0.95c0.83-0.29,1.69-0.3,2.54-0.09c1.27,0.3,2.08,1.43,2.1,2.91
		c0.02,1.63,0,3.25,0.01,4.88c0,0.35-0.1,0.5-0.42,0.47c-0.19-0.02-0.38,0.01-0.57,0c-0.65-0.01-0.65-0.01-0.67-0.77
		c-0.54,0.57-1.17,0.9-1.87,0.98c-1.61,0.18-3.07-0.84-3.01-2.73c0.03-1.17,0.86-2.18,2.04-2.34c0.75-0.1,1.51-0.03,2.27-0.04
		c0.15,0,0.3,0.02,0.44,0.03c0.2-1-0.42-1.83-1.36-1.88c-0.79-0.04-1.5,0.22-2.16,0.81C94.84,17.9,94.59,17.47,94.35,17.04z
		 M98.69,20.67c-0.71,0-1.36-0.04-2,0.01c-0.58,0.04-0.99,0.53-1.02,1.08c-0.02,0.53,0.3,1,0.84,1.09c0.59,0.11,1.18,0.06,1.7-0.28
		c0.22-0.14,0.4-0.45,0.47-0.72C98.75,21.53,98.69,21.15,98.69,20.67z"/>
	<path class="st0" d="M110.49,19.42c0.12-1.35-0.74-2.17-2-1.85c-0.53,0.13-1.03,0.41-1.61,0.65c-0.16-0.27-0.4-0.65-0.59-1.04
		c-0.04-0.08,0.07-0.29,0.16-0.38c0.53-0.5,1.17-0.75,1.85-0.85c0.73-0.11,1.47-0.11,2.17,0.17c1.07,0.41,1.76,1.46,1.78,2.72
		c0.02,1.64,0,3.28,0.01,4.93c0,0.36-0.1,0.54-0.44,0.51c-0.18-0.01-0.35,0.01-0.53,0c-0.65-0.02-0.65-0.02-0.7-0.78
		c-0.53,0.58-1.17,0.9-1.88,0.98c-1.21,0.14-2.66-0.43-2.96-2.18c-0.23-1.35,0.63-2.68,2-2.88c0.74-0.11,1.51-0.04,2.27-0.04
		C110.17,19.37,110.33,19.4,110.49,19.42z M110.54,20.67c-0.7,0-1.36-0.01-2.01,0.01c-0.17,0.01-0.34,0.11-0.49,0.2
		c-0.36,0.23-0.55,0.59-0.51,1.04c0.05,0.47,0.29,0.79,0.73,0.9c0.61,0.15,1.23,0.11,1.77-0.23c0.22-0.14,0.42-0.46,0.49-0.75
		C110.6,21.52,110.54,21.16,110.54,20.67z"/>
	<path class="st0" d="M81.71,20.84c0.05,1.15,0.73,1.9,1.72,1.98c0.74,0.06,1.44-0.05,2.08-0.46c0.24-0.15,0.36-0.09,0.45,0.18
		c0.07,0.19,0.17,0.38,0.29,0.54c0.22,0.28,0.19,0.45-0.11,0.66c-1.57,1.12-3.53,1.1-4.95-0.12c-0.98-0.84-1.34-2.03-1.35-3.35
		c-0.01-1.56,0.43-2.92,1.69-3.79c1.5-1.03,3.4-0.74,4.48,0.64c0.46,0.59,0.64,1.3,0.73,2.05c0.05,0.41,0.04,0.83,0.08,1.25
		c0.03,0.34-0.09,0.43-0.39,0.43c-1.43-0.01-2.86,0-4.28,0C82.01,20.84,81.86,20.84,81.71,20.84z M81.71,19.41c1.15,0,2.3,0,3.45,0
		c0.05-1.03-0.64-1.93-1.55-2C82.57,17.32,81.83,18.09,81.71,19.41z"/>
	<path class="st0" d="M98.77,34.37c-1.68,0-3.31,0-4.94,0c0.11,1.19,0.69,1.8,1.75,1.9c0.81,0.08,1.55-0.14,2.27-0.6
		c0.17,0.37,0.36,0.7,0.46,1.06c0.03,0.12-0.12,0.38-0.24,0.47c-0.74,0.52-1.56,0.76-2.43,0.74c-1.69-0.04-2.99-1.11-3.44-2.79
		c-0.49-1.83,0.06-3.9,1.34-4.86c1.12-0.85,2.34-0.91,3.55-0.27c1.17,0.62,1.63,1.77,1.69,3.14C98.79,33.54,98.77,33.92,98.77,34.37
		z M97.19,33c0-1.06-0.66-1.84-1.56-1.89c-0.99-0.06-1.67,0.66-1.8,1.89C94.94,33,96.05,33,97.19,33z"/>
	<path class="st0" d="M117.54,31.54c0.9-0.21,1.12-0.12,1.17,0.46c0.42-0.44,0.89-0.72,1.46-0.67c0.55,0.05,1.02,0.31,1.31,0.86
		c0.62-0.73,1.35-1,2.21-0.75c0.75,0.22,1.26,0.97,1.28,1.91c0.02,1.3,0,2.6,0.02,3.9c0,0.29-0.1,0.36-0.34,0.35
		c-1.02-0.03-0.87,0.15-0.89-0.93c-0.01-1.02-0.01-2.03-0.01-3.05c0-0.46-0.17-0.81-0.57-0.98c-0.4-0.16-0.85-0.06-1.11,0.3
		c-0.11,0.16-0.19,0.4-0.19,0.6c-0.02,1.19-0.02,2.39,0,3.59c0,0.35-0.09,0.48-0.42,0.47c-0.96-0.04-0.81,0.13-0.82-0.91
		c-0.01-1.03,0-2.06-0.01-3.09c0-0.45-0.17-0.81-0.58-0.97c-0.39-0.15-0.86-0.03-1.1,0.33c-0.11,0.18-0.18,0.43-0.19,0.65
		c-0.02,1.18-0.02,2.36,0,3.54c0,0.33-0.09,0.45-0.4,0.44c-0.98-0.03-0.83,0.12-0.83-0.89C117.54,35,117.54,33.28,117.54,31.54z"/>
	<path class="st0" d="M91.37,28.01c-0.34,0-0.67-0.02-0.99,0c-0.39,0.03-0.59,0.28-0.6,0.7c-0.01,0.37,0,0.74,0,1.18
		c0.43,0,0.83,0.01,1.23,0c0.29-0.01,0.42,0.08,0.41,0.43c-0.03,1.34,0.18,1.17-1.05,1.18c-0.18,0-0.35,0-0.57,0
		c0,0.5,0,0.98,0,1.45c0.01,1.39,0.02,2.78,0.03,4.16c0,0.54-0.04,0.59-0.53,0.59c-1.18,0.01-1.18,0.01-1.18-1.28
		c0-1.48-0.01-2.96-0.02-4.43c0-0.15,0-0.29,0-0.43c-0.38-0.06-0.8,0-1.04-0.2c-0.16-0.14-0.07-0.64-0.07-0.98
		c0-0.4,0.01-0.4,1.05-0.51c0-0.41,0-0.83,0-1.24c0.01-1.21,0.76-2.08,1.87-2.15c0.11-0.01,0.22,0,0.33,0
		C91.38,26.48,91.57,26.72,91.37,28.01z"/>
	<path class="st0" d="M84.88,29.89c0.44,0,0.8,0.01,1.17,0c0.27-0.01,0.4,0.08,0.39,0.41c-0.04,1.31,0.22,1.18-1.03,1.19
		c-0.16,0-0.32,0-0.52,0c0,0.19,0,0.34,0,0.48c0.01,1.72,0.01,3.43,0.04,5.15c0.01,0.42-0.07,0.61-0.51,0.6
		c-1.17-0.03-1.17-0.01-1.17-1.31c0-1.61,0-3.22,0-4.9c-0.28,0-0.55-0.01-0.81,0c-0.24,0.01-0.33-0.09-0.34-0.36
		c-0.04-1.16-0.05-1.16,1.07-1.27c0-0.33,0.01-0.67,0-1.01c-0.09-1.87,1.27-2.57,2.64-2.35c0.13,0.02,0.27,0.05,0.4,0.09
		c0.22,0.07,0.36,0.2,0.32,0.48c-0.01,0.07,0,0.15,0,0.22c0,0.7,0.09,0.74-0.63,0.7c-0.16-0.01-0.33-0.01-0.49,0.02
		c-0.3,0.05-0.5,0.23-0.52,0.58C84.86,29.02,84.88,29.43,84.88,29.89z"/>
	<path class="st0" d="M102.31,18.33c0-1.6,0.01-3.19-0.01-4.79c0-0.43,0.15-0.57,0.52-0.59c1.14-0.07,1.18-0.04,1.18,1.21
		c0,2.55,0,5.1,0.01,7.66c0,0.21,0.02,0.42,0.03,0.62c0.02,0.27,0.14,0.41,0.4,0.36c0.28-0.05,0.36,0.11,0.36,0.38
		c0,0.18,0.01,0.36,0.01,0.54c0.01,0.75-0.02,0.78-0.73,0.8c-0.16,0-0.33,0.01-0.49-0.01c-0.85-0.09-1.24-0.55-1.24-1.48
		c0-1.57,0-3.13,0-4.7C102.34,18.33,102.32,18.33,102.31,18.33z"/>
	<path class="st0" d="M90.11,17.31c0.54-0.93,1.24-1.4,2.16-1.41c0.64-0.01,0.73,0.11,0.74,0.8c0,0.03,0,0.06,0,0.09
		c-0.01,0.3,0.07,0.68-0.06,0.86c-0.11,0.15-0.49,0.06-0.75,0.06c-1.23,0.02-2,0.86-2,2.23c-0.01,1.28-0.01,2.57,0.01,3.85
		c0.01,0.38-0.12,0.52-0.44,0.51c-0.35-0.01-0.71-0.03-1.06-0.03c-0.24-0.01-0.33-0.12-0.33-0.39c0.01-2.45,0.01-4.9,0-7.35
		c0-0.33,0.14-0.46,0.42-0.46c0.29,0,0.57,0.01,0.86,0c0.36-0.02,0.5,0.15,0.46,0.53C90.1,16.81,90.11,17.01,90.11,17.31z"/>
	<path class="st0" d="M101.87,31.02c0.57-0.96,1.29-1.39,2.26-1.34c0.32,0.02,0.48,0.15,0.48,0.51c0,0.04,0,0.09,0,0.13
		c0,0.34,0.09,0.74-0.05,1c-0.08,0.15-0.52,0.08-0.79,0.11c-1.26,0.15-1.85,0.88-1.85,2.27c0,1.13-0.01,2.27,0.01,3.4
		c0.01,0.42-0.11,0.62-0.51,0.58c-0.3-0.03-0.6-0.01-0.9-0.01c-0.25,0-0.37-0.12-0.37-0.41c0-2.34,0-4.68-0.01-7.02
		c0-0.28,0.13-0.37,0.35-0.37c0.29,0,0.57,0.01,0.86-0.01c0.39-0.02,0.55,0.16,0.51,0.59C101.86,30.62,101.87,30.78,101.87,31.02z"
		/>
	<path class="st0" d="M111.31,34.53c0.03-1.68,0.97-2.93,2.46-3.16c0.81-0.12,1.52,0.19,2.1,0.84c1.04,1.16,1.1,3.34,0.13,4.54
		c-0.71,0.88-1.61,1.21-2.64,0.91c-1.05-0.3-1.67-1.11-1.93-2.25C111.36,35.12,111.35,34.82,111.31,34.53z M115.51,34.59
		c-0.03-0.01-0.06-0.02-0.09-0.03c0-0.13,0.01-0.27,0-0.4c-0.07-0.79-0.52-1.39-1.15-1.55c-0.51-0.13-1.11,0.15-1.38,0.7
		c-0.41,0.81-0.44,1.65-0.01,2.46c0.53,0.99,1.75,1.01,2.26,0.02C115.33,35.43,115.39,34.99,115.51,34.59z"/>
	<path class="st0" d="M110.95,32.24c-0.21,0.3-0.43,0.6-0.67,0.94c-0.47-0.43-0.97-0.75-1.56-0.53c-0.31,0.12-0.65,0.35-0.85,0.63
		c-0.56,0.79-0.46,2.1,0.15,2.76c0.6,0.66,1.3,0.64,2.33-0.1c0.22,0.28,0.44,0.58,0.66,0.86c-0.84,1.16-2.68,1.26-3.74,0.23
		c-1.26-1.23-1.36-3.43-0.23-4.72C108.13,31.08,109.93,31.03,110.95,32.24z"/>
	<path class="st0" d="M104.71,35.98c0.47,0,0.88,0.38,0.9,0.83c0.02,0.5-0.4,0.96-0.89,0.96c-0.46,0-0.89-0.43-0.9-0.9
		C103.81,36.4,104.22,35.98,104.71,35.98z"/>
</g>
<g>
	<path class="st0" d="M65.37,23.86c-1.06-0.11-1.95-0.22-2.84-0.3c-2.63-0.25-5.27-0.51-7.9-0.72c-2.82-0.23-5.65-0.42-8.48-0.6
		c-2.56-0.16-5.12-0.29-7.67-0.41c-2.46-0.11-4.91-0.18-7.37-0.3c-0.26-0.01-0.57-0.18-0.74-0.38c-2.55-2.91-5.79-4.06-9.57-3.72
		c-1.82,0.16-3.52,0.79-4.83,2.16c-0.21,0.22-0.39,0.49-0.55,0.76c-0.35,0.6-0.78,0.82-1.42,0.58c-0.15-0.06-0.32-0.47-0.25-0.61
		c0.26-0.52,0.57-1.03,0.94-1.48c1.82-2.16,4.21-3.33,6.95-3.85c3.59-0.68,7.03-0.04,10.42,1.16c0.74,0.26,1.54,0.39,2.32,0.46
		c3.15,0.32,6.31,0.54,9.46,0.89c3.54,0.4,7.07,0.87,10.59,1.41c2.25,0.34,4.49,0.79,6.71,1.3c1.58,0.37,2.82,1.35,3.82,2.63
		C65.14,23.1,65.2,23.44,65.37,23.86z"/>
	<path class="st0" d="M47.07,31.37c-1.66,0-3.21,0-4.86,0c0-1.19,0.02-2.34-0.01-3.49c-0.02-0.58-0.04-1.19-0.22-1.73
		c-0.4-1.24-1.51-2.03-2.51-1.9c-1.2,0.16-2.15,1.25-2.21,2.61c-0.05,1.11-0.03,2.23-0.04,3.34c0,0.25-0.02,0.5-0.03,0.73
		c-1.66,0-3.29,0-4.95,0c0-2.65,0-5.21,0-7.91c10.24,0.57,20.46,1.14,30.72,1.71c0,2.13,0,4.12,0,6.17
		c-1.06,0.09-2.11,0.18-3.26,0.28c0-0.75,0-1.46,0-2.17c0-0.44,0.01-0.88-0.01-1.32c-0.06-1.22-0.88-2.12-1.9-2.12
		c-1.03,0-1.83,0.91-1.85,2.15c-0.02,0.99,0,1.98,0,2.96c0,0.2,0,0.41,0,0.67c-1.45,0-2.83,0-4.3,0c0-1.19,0.01-2.4-0.01-3.61
		c-0.01-0.41-0.03-0.85-0.16-1.24c-0.41-1.28-1.35-1.93-2.53-1.79c-0.96,0.11-1.79,1.16-1.84,2.4c-0.04,1.09-0.02,2.19-0.03,3.28
		C47.07,30.71,47.07,31.02,47.07,31.37z"/>
	<path class="st0" d="M65.1,31.45c-0.44,2.46-2.43,4.65-4.49,4.72c0.74-0.66,1.47-1.22,1.65-2.22c-2.22,0-4.4-0.03-6.58,0.01
		c-2.04,0.04-4.07,0.21-6.11,0.2c-4.98,0-9.96-0.01-14.94-0.14c-3.8-0.1-7.59-0.33-11.38-0.62c-3.03-0.23-6.05-0.6-9.06-1.01
		c-0.72-0.1-1.41-0.58-2.07-0.96c-0.25-0.15-0.38-0.51-0.56-0.78c0.03-0.06,0.06-0.11,0.09-0.17c0.67,0.06,1.35,0.1,2.02,0.18
		c2.77,0.32,5.53,0.71,8.3,0.95c3.28,0.28,6.58,0.52,9.87,0.64c5.31,0.18,10.63,0.31,15.95,0.34c3.59,0.01,7.19-0.13,10.77-0.34
		C60.75,32.12,62.92,31.72,65.1,31.45z"/>
	<path class="st0" d="M20.27,14.18c1.14-1.43,2.52-2.45,4.25-2.67c1.59-0.21,3.23-0.19,4.83-0.08c2.66,0.19,5.32,0.44,7.95,0.82
		c6.41,0.92,12.75,2.12,18.73,4.76c0.55,0.24,1.07,0.57,1.59,0.87c0.16,0.09,0.27,0.26,0.4,0.4c-0.03,0.05-0.06,0.1-0.09,0.15
		c-0.33-0.09-0.66-0.19-1-0.25c-3.37-0.6-6.74-1.26-10.13-1.77c-2.88-0.43-5.79-0.7-8.69-1c-1.67-0.17-3.35-0.26-5.02-0.4
		c-0.3-0.03-0.61-0.11-0.9-0.22c-2.47-0.97-4.95-1.94-7.66-1.64c-1.25,0.14-2.45,0.62-3.68,0.96c-0.12,0.03-0.23,0.1-0.35,0.14
		C20.48,14.26,20.43,14.23,20.27,14.18z"/>
	<path class="st0" d="M29.6,30.67c-1.69-0.12-3.35-0.23-5.09-0.35c0-1.47,0.01-2.89,0-4.31c-0.01-0.95-0.61-1.85-1.39-2.14
		c-1.25-0.46-2.5,0.33-2.64,1.78c-0.11,1.17-0.06,2.35-0.09,3.52c0,0.22,0,0.45,0,0.74c-0.97-0.1-1.86-0.19-2.82-0.28
		c0.05-2.37-0.38-4.76,1.08-6.94c2.16-3.21,6.9-3.42,9.41-0.36c0.94,1.15,1.55,2.42,1.56,3.94c0.01,1.34,0.03,2.69,0.03,4.03
		C29.67,30.4,29.64,30.5,29.6,30.67z"/>
	<path class="st0" d="M17.98,38.72c-2.45,0.07-4.88,0.2-7.12-1.07c-2.67-1.52-4.14-3.86-4.74-6.77c-0.26-1.24-0.31-2.53-0.37-3.81
		C5.69,26,5.61,24.95,5.15,23.95C5.08,23.8,4.99,23.64,5,23.48c0.01-0.28,0.02-0.6,0.17-0.81c0.07-0.1,0.48-0.06,0.68,0.03
		c1.65,0.71,3.32,1.38,4.91,2.21c1.65,0.86,2.36,2.47,2.97,4.26c-0.84-0.1-1.58-0.17-2.31-0.31c-0.12-0.02-0.23-0.3-0.28-0.48
		c-0.38-1.4-1.91-2.72-3.37-2.87c0.19,2.53-0.13,5.11,1.22,7.47c1.31,2.31,3.29,3.78,5.7,4.71c1.01,0.39,2.07,0.61,3.11,0.92
		C17.86,38.62,17.91,38.68,17.98,38.72z"/>
</g>
</svg>
